# xmcd CD database file
#
# Track frame offsets:
#	150
#	17370
#	37845
#
# Disc length: 877 seconds
#
# Revision: 0
# Processed by: cddbd v1.5.2PL0 Copyright (c) Steve Scherf et al.
# Submitted via: CDex 1.70beta2
#
DISCID=11036b03
DTITLE=Garbarek, Jan - Extracts from Visible World (Promotion-CD)
DYEAR=1996
DGENRE=Jazz
TTITLE0=Red Wind
TTITLE1=The Creek
TTITLE2=Pygmy Lullaby
EXTD=YEAR: 1996
EXTT0=
EXTT1=
EXTT2=
PLAYORDER=
